<?xml version="1.0" standalone="no"?>
<!DOCTYPE svg PUBLIC "-//W3C//DTD SVG 20010904//EN"
 "http://www.w3.org/TR/2001/REC-SVG-20010904/DTD/svg10.dtd">
<svg version="1.0" xmlns="http://www.w3.org/2000/svg"
 width="709.000000pt" height="709.000000pt" viewBox="0 0 709.000000 709.000000"
 preserveAspectRatio="xMidYMid meet">
<metadata>
Created by potrace 1.14, written by Peter Selinger 2001-2017
</metadata>
<g transform="translate(0.000000,709.000000) scale(0.100000,-0.100000)"
fill="#000000" stroke="none">
<path d="M3460 6730 c-26 -26 -55 -85 -75 -153 -16 -55 -27 -68 -40 -47 -3 5
-38 19 -76 31 -87 26 -180 23 -253 -10 -53 -23 -52 -32 5 -50 20 -7 54 -27 75
-45 l39 -34 -45 -6 c-25 -3 -72 -8 -105 -12 -249 -25 -478 -143 -637 -326 -74
-85 -168 -212 -168 -227 0 -28 32 -18 96 30 149 113 354 187 542 196 61 3 112
3 112 0 0 -3 -34 -23 -75 -45 -258 -140 -449 -378 -563 -703 -32 -92 -85 -314
-79 -332 2 -6 42 48 89 119 184 278 361 461 556 575 37 21 70 39 74 39 4 0
-12 -30 -34 -67 -169 -276 -268 -577 -268 -813 0 -86 26 -260 39 -260 4 0 17
44 30 98 59 252 198 527 374 740 33 40 61 71 63 69 2 -1 -3 -28 -12 -59 -74
-286 -66 -726 17 -951 25 -67 39 -61 39 18 0 118 46 408 96 610 27 107 85 298
89 293 2 -2 13 -72 26 -157 19 -135 20 -156 7 -165 -13 -10 -13 -43 -4 -254
10 -228 10 -242 -6 -242 -22 0 -23 -29 -3 -275 19 -232 19 -226 -5 -232 -24
-6 -24 9 0 -243 27 -286 31 -257 -45 -318 -48 -39 -65 -59 -65 -77 l0 -25 225
0 c214 0 225 1 225 19 0 22 -59 82 -105 107 -29 15 -33 22 -29 48 5 34 44 469
44 486 0 5 -9 10 -20 10 -17 0 -20 7 -20 44 0 50 17 321 25 409 5 50 4 57 -12
57 -19 0 -19 37 0 398 5 87 4 92 -15 92 -16 0 -19 5 -14 28 5 25 35 263 36
287 1 23 42 -67 74 -165 60 -184 119 -494 141 -745 4 -44 11 -86 15 -93 3 -8
18 58 31 145 21 138 24 193 24 428 0 262 -13 414 -45 524 -5 17 -7 31 -5 31 3
0 29 -33 59 -72 154 -206 334 -568 395 -793 31 -114 34 -117 42 -50 22 191 3
449 -47 623 -31 108 -134 321 -208 427 -30 44 -53 81 -51 83 5 5 85 -38 145
-78 188 -128 432 -403 537 -607 21 -40 41 -73 44 -73 8 0 2 69 -16 180 -57
350 -313 709 -628 879 l-62 33 95 -5 c60 -3 128 -15 185 -31 118 -35 330 -139
429 -210 43 -31 81 -55 83 -52 7 7 -97 151 -174 242 -200 234 -469 382 -727
401 l-90 6 34 28 c19 16 58 39 87 51 29 12 53 25 53 28 0 4 -34 15 -75 25
-127 30 -225 17 -337 -43 -3 -1 -13 22 -22 52 -33 114 -69 176 -102 176 -8 0
-23 -9 -34 -20z"/>
<path d="M700 5120 c0 -57 -1 -60 -25 -60 l-25 0 0 -355 0 -355 -269 0 -269 0
-6 -67 c-45 -516 -21 -865 89 -1288 309 -1190 1257 -2140 2440 -2445 318 -82
539 -110 879 -110 239 0 354 9 560 41 896 143 1714 657 2245 1409 286 405 474
851 570 1350 26 138 48 356 56 558 l7 162 -176 0 -176 0 0 290 0 290 -100 0
-100 0 0 150 0 150 -115 0 -115 0 0 65 0 65 -250 0 -250 0 0 -76 c0 -65 -3
-80 -25 -108 l-25 -33 0 -241 0 -242 -45 0 -45 0 0 174 0 175 -62 70 -62 71
-53 0 -53 0 0 65 0 65 -195 0 -195 0 0 -440 0 -440 -45 0 -45 0 0 165 0 165
-235 0 -235 0 0 -165 0 -165 -300 0 -300 0 0 -55 0 -55 355 0 355 0 0 165 0
165 125 0 125 0 0 -165 0 -165 155 0 155 0 0 445 0 445 85 0 85 0 0 -70 0 -70
78 0 c77 0 78 0 115 -38 l37 -38 0 -207 0 -207 155 0 155 0 0 278 0 279 25 23
c20 19 25 33 25 72 l0 48 140 0 140 0 0 -65 0 -65 115 0 115 0 0 -150 0 -150
105 0 105 0 0 -290 0 -290 170 0 169 0 -5 -97 c-15 -274 -43 -470 -99 -693
-291 -1158 -1193 -2081 -2344 -2396 -294 -80 -559 -116 -871 -116 -297 0 -540
29 -810 97 -587 148 -1115 448 -1545 880 -254 255 -441 510 -605 828 -265 515
-395 1102 -361 1640 6 100 11 197 11 215 l0 32 275 0 275 0 0 355 0 355 25 0
c24 0 25 3 25 60 l0 60 48 0 48 0 35 -60 34 -60 48 0 47 0 0 -460 0 -460 55 0
55 0 0 -65 0 -65 120 0 120 0 0 370 0 370 115 0 115 0 0 -95 0 -95 70 0 70 0
0 -180 0 -180 150 0 150 0 0 -55 0 -55 75 0 75 0 0 230 0 230 83 0 82 -1 33
-44 32 -44 0 -226 0 -225 385 0 385 0 0 55 0 55 -330 0 -330 0 0 194 0 193
-61 77 -61 76 -164 0 -164 0 0 -175 0 -175 -115 0 -115 0 0 180 0 180 -70 0
-70 0 0 95 0 95 -225 0 -225 0 0 -370 c0 -240 -4 -370 -10 -370 -6 0 -10 28
-10 65 l0 65 -55 0 -55 0 0 460 0 460 -69 0 -69 0 -34 58 -34 57 -137 3 -137
3 0 -61z"/>
<path d="M1140 3523 c-96 -7 -283 -36 -453 -69 -98 -19 -181 -35 -185 -35 -28
-6 115 -17 215 -18 249 -2 558 -31 823 -77 673 -116 1253 -377 1676 -753 l49
-43 -41 -37 c-22 -20 -129 -118 -236 -218 l-195 -181 -22 71 c-40 126 -79 173
-193 232 -55 28 -79 35 -125 35 -174 -1 -283 -170 -209 -325 58 -123 151 -160
287 -115 33 11 64 18 70 15 39 -25 -43 -122 -145 -172 l-56 -27 -22 21 c-84
77 -223 82 -304 11 -129 -113 -100 -336 51 -394 36 -13 66 -16 152 -12 157 8
267 51 445 175 l77 53 47 -50 c147 -157 350 -211 502 -134 147 76 173 254 53
374 -57 57 -119 76 -200 60 -88 -17 -120 -35 -141 -82 -11 -24 -20 -51 -20
-60 0 -22 -10 -23 -35 -4 -19 13 -18 15 10 57 49 70 170 187 339 327 139 115
161 130 175 119 9 -8 75 -60 146 -117 163 -130 255 -218 311 -296 47 -66 52
-79 30 -87 -10 -4 -17 4 -21 24 -17 76 -145 140 -249 125 -109 -17 -196 -121
-196 -236 0 -74 31 -133 95 -182 63 -47 117 -62 210 -56 103 7 201 56 300 149
l72 69 109 -73 c60 -40 147 -88 194 -106 73 -29 100 -35 191 -39 222 -10 329
70 317 237 -13 176 -225 267 -376 161 l-43 -30 -51 26 c-98 50 -161 114 -151
153 4 18 7 18 56 -1 61 -23 163 -21 212 5 81 41 119 107 120 203 0 61 -4 77
-30 119 -59 96 -165 134 -277 101 -120 -35 -197 -114 -240 -247 -12 -38 -25
-68 -29 -67 -14 5 -459 421 -459 428 0 17 204 177 343 270 438 293 978 481
1607 559 201 25 413 40 580 42 69 1 152 4 185 8 l60 6 -165 32 c-341 66 -494
83 -770 83 -285 0 -525 -27 -784 -89 -444 -107 -885 -319 -1217 -587 -44 -35
-82 -64 -84 -64 -3 0 -69 44 -147 99 -329 228 -622 380 -913 475 -221 72 -529
134 -775 156 -106 9 -445 11 -550 3z m575 -84 c629 -63 1114 -254 1686 -664
65 -47 122 -85 127 -85 5 0 47 32 93 70 106 89 331 241 474 319 302 165 703
296 1063 345 167 23 445 39 542 30 l85 -7 -105 -14 c-366 -46 -784 -156 -1085
-283 -329 -139 -649 -342 -880 -558 l-68 -64 29 -28 c16 -15 128 -119 249
-230 121 -112 243 -226 272 -253 l51 -49 26 39 c14 21 37 72 51 112 45 133 88
185 177 217 86 30 156 8 205 -65 44 -66 21 -158 -49 -201 -43 -26 -119 -26
-177 0 -65 30 -97 27 -121 -12 -62 -103 13 -220 194 -303 41 -19 81 -35 88
-35 8 0 27 14 44 31 56 60 119 73 190 38 113 -54 116 -202 6 -252 -36 -16 -66
-21 -132 -21 -139 0 -266 56 -457 200 -47 36 -87 63 -88 62 -1 -2 -16 -24 -33
-50 -66 -97 -200 -189 -304 -208 -103 -19 -215 43 -239 132 -12 48 12 111 60
151 40 34 69 41 126 33 64 -10 105 -47 105 -96 0 -22 7 -45 16 -54 19 -20 66
-20 103 -1 36 18 81 71 81 95 0 30 -95 163 -172 239 -39 40 -125 115 -192 168
-67 53 -148 120 -181 149 l-60 52 -26 -21 c-371 -309 -452 -385 -537 -498 -48
-64 -53 -102 -20 -144 23 -30 74 -55 111 -55 31 0 53 25 73 83 19 57 29 65 96
79 46 10 59 9 92 -7 62 -30 108 -118 92 -179 -3 -13 -18 -39 -33 -57 -110
-130 -360 -68 -497 125 l-47 65 -107 -80 c-169 -125 -343 -199 -471 -199 -130
0 -210 121 -152 230 51 98 181 107 256 18 30 -36 43 -34 154 19 88 42 175 122
186 172 9 43 -1 93 -26 125 -25 32 -63 34 -137 6 -74 -28 -123 -26 -162 6 -87
74 -79 200 17 257 46 26 103 24 167 -7 79 -39 116 -86 155 -195 18 -52 43
-110 56 -128 l23 -35 294 273 c161 150 294 278 296 285 4 16 -133 141 -264
240 -351 265 -754 450 -1239 569 -183 45 -409 87 -545 102 -70 7 -73 8 -35 14
49 9 293 2 430 -12z"/>
</g>
</svg>
